<svg width="24" height="24" viewBox="0 0 24 24" fill="none" xmlns="http://www.w3.org/2000/svg">
<g clip-path="url(#clip0_178_968)">
<path d="M23.2715 9.4183C21.7205 6.8923 18.1925 2.6543 12.0005 2.6543C5.80854 2.6543 2.28054 6.8923 0.72954 9.4183C0.250068 10.1938 -0.00390625 11.0875 -0.00390625 11.9993C-0.00390625 12.9111 0.250068 13.8048 0.72954 14.5803C2.28054 17.1063 5.80854 21.3443 12.0005 21.3443C18.1925 21.3443 21.7205 17.1063 23.2715 14.5803C23.751 13.8048 24.005 12.9111 24.005 11.9993C24.005 11.0875 23.751 10.1938 23.2715 9.4183ZM21.5665 13.5333C20.2345 15.6993 17.2195 19.3443 12.0005 19.3443C6.78154 19.3443 3.76654 15.6993 2.43454 13.5333C2.14967 13.0723 1.99879 12.5412 1.99879 11.9993C1.99879 11.4574 2.14967 10.9263 2.43454 10.4653C3.76654 8.2993 6.78154 4.6543 12.0005 4.6543C17.2195 4.6543 20.2345 8.2953 21.5665 10.4653C21.8514 10.9263 22.0023 11.4574 22.0023 11.9993C22.0023 12.5412 21.8514 13.0723 21.5665 13.5333Z" fill="black"/>
<path d="M12 6.99988C11.0111 6.99988 10.0444 7.29312 9.22215 7.84253C8.39991 8.39194 7.75904 9.17283 7.3806 10.0865C7.00217 11.0001 6.90315 12.0054 7.09608 12.9753C7.289 13.9452 7.76521 14.8362 8.46447 15.5354C9.16373 16.2347 10.0546 16.7109 11.0246 16.9038C11.9945 17.0967 12.9998 16.9977 13.9134 16.6193C14.827 16.2408 15.6079 15.6 16.1574 14.7777C16.7068 13.9555 17 12.9888 17 11.9999C16.9984 10.6743 16.4711 9.40344 15.5338 8.4661C14.5964 7.52876 13.3256 7.00147 12 6.99988ZM12 14.9999C11.4067 14.9999 10.8266 14.8239 10.3333 14.4943C9.83994 14.1646 9.45543 13.6961 9.22836 13.1479C9.0013 12.5998 8.94189 11.9966 9.05765 11.4146C9.1734 10.8327 9.45912 10.2981 9.87868 9.87856C10.2982 9.459 10.8328 9.17328 11.4147 9.05752C11.9967 8.94177 12.5999 9.00118 13.1481 9.22824C13.6962 9.4553 14.1648 9.83982 14.4944 10.3332C14.8241 10.8265 15 11.4065 15 11.9999C15 12.7955 14.6839 13.5586 14.1213 14.1212C13.5587 14.6838 12.7957 14.9999 12 14.9999Z" fill="black"/>
</g>
<defs>
<clipPath id="clip0_178_968">
<rect width="24" height="24" fill="white"/>
</clipPath>
</defs>
</svg>
