<svg width="48" height="48" viewBox="0 0 48 48" fill="none" xmlns="http://www.w3.org/2000/svg">
<rect width="48" height="48" rx="24" fill="#170A51"/>
<g clip-path="url(#clip0_319_366)">
<path d="M24.0007 34C25.1996 34 26.2321 33.2758 26.6851 32.2422H21.3164C21.7694 33.2758 22.8019 34 24.0007 34Z" fill="white"/>
<path d="M30.0547 23.6821V22.3984C30.0547 19.671 28.2418 17.3593 25.7579 16.6043V15.7578C25.7579 14.7886 24.9693 14 24 14C23.0308 14 22.2422 14.7886 22.2422 15.7578V16.6043C19.7582 17.3593 17.9454 19.671 17.9454 22.3984V23.6821C17.9454 26.0779 17.0322 28.3496 15.374 30.0788C15.2115 30.2483 15.1658 30.4983 15.2579 30.7143C15.35 30.9302 15.5622 31.0703 15.7969 31.0703H32.2032C32.4379 31.0703 32.65 30.9302 32.7421 30.7143C32.8342 30.4983 32.7886 30.2483 32.6261 30.0788C30.9679 28.3496 30.0547 26.0779 30.0547 23.6821ZM24.586 16.3722C24.3931 16.3536 24.1977 16.3438 24 16.3438C23.8024 16.3438 23.607 16.3536 23.4141 16.3722V15.7578C23.4141 15.4347 23.677 15.1719 24 15.1719C24.3231 15.1719 24.586 15.4347 24.586 15.7578V16.3722Z" fill="white"/>
<path d="M31.6175 22.3982C31.6175 22.7218 31.8798 22.9841 32.2034 22.9841C32.527 22.9841 32.7894 22.7218 32.7894 22.3982C32.7894 20.0505 31.8751 17.8434 30.2151 16.1833C29.9863 15.9545 29.6153 15.9545 29.3865 16.1833C29.1576 16.4122 29.1576 16.7831 29.3865 17.012C30.8252 18.4507 31.6175 20.3635 31.6175 22.3982Z" fill="white"/>
<path d="M15.7969 22.9841C16.1205 22.9841 16.3828 22.7217 16.3828 22.3981C16.3828 20.3635 17.1752 18.4507 18.6138 17.012C18.8427 16.7831 18.8427 16.4122 18.6138 16.1833C18.385 15.9545 18.014 15.9545 17.7852 16.1833C16.1252 17.8434 15.2109 20.0505 15.2109 22.3981C15.2109 22.7217 15.4733 22.9841 15.7969 22.9841Z" fill="white"/>
</g>
<defs>
<clipPath id="clip0_319_366">
<rect width="20" height="20" fill="white" transform="translate(14 14)"/>
</clipPath>
</defs>
</svg>
