<svg width="20" height="20" viewBox="0 0 20 20" fill="none" xmlns="http://www.w3.org/2000/svg">
<g clip-path="url(#clip0_1790_6045)">
<path d="M20 17.7778C20 18.3672 19.7659 18.9324 19.3491 19.3492C18.9324 19.7659 18.3671 20.0001 17.7778 20.0001H2.22222C1.63285 20.0001 1.06762 19.7659 0.650874 19.3492C0.234126 18.9324 0 18.3672 0 17.7778V5.00005C0 4.41068 0.234126 3.84545 0.650874 3.42871C1.06762 3.01196 1.63285 2.77783 2.22222 2.77783H17.7778C18.3671 2.77783 18.9324 3.01196 19.3491 3.42871C19.7659 3.84545 20 4.41068 20 5.00005V17.7778Z" fill="#E0E7EC"/>
<path d="M13.1425 10.622H9.92755C9.24977 10.622 8.9981 10.1826 8.9981 9.75534C8.9981 9.31589 9.23644 8.88867 9.92755 8.88867H14.4742C15.1153 8.88867 15.3787 9.46645 15.3787 9.79312C15.3787 10.0442 15.2403 10.3081 15.0898 10.622L11.9748 16.9526C11.6231 17.6559 11.4848 17.9064 10.9198 17.9064C10.2287 17.9064 9.87699 17.3792 9.87699 17.0148C9.87699 16.8642 9.91477 16.7515 10.0025 16.5753L13.1425 10.622ZM6.04921 10.5553H5.77144C5.16866 10.5553 4.91699 10.1492 4.91699 9.72201C4.91699 9.28201 5.23088 8.88867 5.77144 8.88867H6.89088C7.43088 8.88867 7.73255 9.27812 7.73255 9.78034V16.9276C7.73255 17.5553 7.42255 17.907 6.88255 17.907C6.34255 17.907 6.04921 17.5553 6.04921 16.9276V10.5553Z" fill="#66757F"/>
<path d="M18.8889 0H17.0683C17.1639 0.163889 17.2222 0.352222 17.2222 0.555556C17.2222 0.850241 17.1052 1.13286 16.8968 1.34123C16.6884 1.5496 16.4058 1.66667 16.1111 1.66667C15.8164 1.66667 15.5338 1.5496 15.3254 1.34123C15.1171 1.13286 15 0.850241 15 0.555556C15 0.352222 15.0583 0.163889 15.1539 0H4.84611C4.94167 0.163889 5 0.352222 5 0.555556C5 0.850241 4.88294 1.13286 4.67456 1.34123C4.46619 1.5496 4.18357 1.66667 3.88889 1.66667C3.5942 1.66667 3.31159 1.5496 3.10321 1.34123C2.89484 1.13286 2.77778 0.850241 2.77778 0.555556C2.77778 0.352222 2.83611 0.163889 2.93167 0H1.11111C0.816426 0 0.533811 0.117063 0.325437 0.325437C0.117063 0.533811 0 0.816426 0 1.11111L0 7.22222H20V1.11111C20 0.816426 19.8829 0.533811 19.6746 0.325437C19.4662 0.117063 19.1836 0 18.8889 0Z" fill="#DD2F45"/>
<path d="M7.32315 2.55785C7.32315 2.28007 7.50093 2.12451 7.73982 2.12451C7.97816 2.12451 8.15593 2.28007 8.15593 2.55785V5.34507H9.14427C9.4276 5.34507 9.54982 5.55618 9.54427 5.74507C9.53838 5.84616 9.4933 5.94097 9.4186 6.00934C9.3439 6.07771 9.24548 6.11424 9.14427 6.11118H7.75649C7.48427 6.11118 7.32315 5.93396 7.32315 5.65618V2.55785ZM3.48427 2.55785C3.48427 2.28007 3.66204 2.12451 3.90093 2.12451C4.13982 2.12451 4.3176 2.28007 4.3176 2.55785V4.49562C4.3176 5.00673 4.64482 5.41173 5.1726 5.41173C5.6776 5.41173 6.02204 4.98451 6.02204 4.49562V2.55785C6.02204 2.28007 6.19927 2.12451 6.43816 2.12451C6.67704 2.12451 6.85482 2.28007 6.85482 2.55785V4.54007C6.85482 5.47285 6.08816 6.1784 5.1726 6.1784C4.24538 6.1784 3.48427 5.48396 3.48427 4.54007V2.55785ZM3.04982 5.00062C3.04982 5.9334 2.45593 6.17785 1.95038 6.17785C1.5676 6.17785 0.928711 6.02785 0.928711 5.54451C0.928711 5.39507 1.05649 5.20618 1.23982 5.20618C1.46204 5.20618 1.65649 5.41173 1.90593 5.41173C2.21704 5.41173 2.21704 5.12285 2.21704 4.94507V2.55785C2.21704 2.28007 2.39482 2.12451 2.63316 2.12451C2.8726 2.12451 3.04982 2.28007 3.04982 2.55785V5.00062Z" fill="#F5F8FA"/>
<path d="M17.7773 5.55572C17.7773 5.70306 17.8359 5.84437 17.9401 5.94856C18.0442 6.05274 18.1856 6.11127 18.3329 6.11127C18.4802 6.11127 18.6216 6.05274 18.7257 5.94856C18.8299 5.84437 18.8885 5.70306 18.8885 5.55572C18.8885 5.40838 18.8299 5.26707 18.7257 5.16288C18.6216 5.05869 18.4802 5.00016 18.3329 5.00016C18.1856 5.00016 18.0442 5.05869 17.9401 5.16288C17.8359 5.26707 17.7773 5.40838 17.7773 5.55572ZM17.7773 3.88905C17.7773 4.03639 17.8359 4.1777 17.9401 4.28189C18.0442 4.38608 18.1856 4.44461 18.3329 4.44461C18.4802 4.44461 18.6216 4.38608 18.7257 4.28189C18.8299 4.1777 18.8885 4.03639 18.8885 3.88905C18.8885 3.74171 18.8299 3.6004 18.7257 3.49621C18.6216 3.39203 18.4802 3.3335 18.3329 3.3335C18.1856 3.3335 18.0442 3.39203 17.9401 3.49621C17.8359 3.6004 17.7773 3.74171 17.7773 3.88905ZM16.1107 5.55572C16.1107 5.70306 16.1692 5.84437 16.2734 5.94856C16.3776 6.05274 16.5189 6.11127 16.6662 6.11127C16.8136 6.11127 16.9549 6.05274 17.0591 5.94856C17.1633 5.84437 17.2218 5.70306 17.2218 5.55572C17.2218 5.40838 17.1633 5.26707 17.0591 5.16288C16.9549 5.05869 16.8136 5.00016 16.6662 5.00016C16.5189 5.00016 16.3776 5.05869 16.2734 5.16288C16.1692 5.26707 16.1107 5.40838 16.1107 5.55572ZM16.1107 3.88905C16.1107 4.03639 16.1692 4.1777 16.2734 4.28189C16.3776 4.38608 16.5189 4.44461 16.6662 4.44461C16.8136 4.44461 16.9549 4.38608 17.0591 4.28189C17.1633 4.1777 17.2218 4.03639 17.2218 3.88905C17.2218 3.74171 17.1633 3.6004 17.0591 3.49621C16.9549 3.39203 16.8136 3.3335 16.6662 3.3335C16.5189 3.3335 16.3776 3.39203 16.2734 3.49621C16.1692 3.6004 16.1107 3.74171 16.1107 3.88905ZM14.444 5.55572C14.444 5.70306 14.5025 5.84437 14.6067 5.94856C14.7109 6.05274 14.8522 6.11127 14.9996 6.11127C15.1469 6.11127 15.2882 6.05274 15.3924 5.94856C15.4966 5.84437 15.5551 5.70306 15.5551 5.55572C15.5551 5.40838 15.4966 5.26707 15.3924 5.16288C15.2882 5.05869 15.1469 5.00016 14.9996 5.00016C14.8522 5.00016 14.7109 5.05869 14.6067 5.16288C14.5025 5.26707 14.444 5.40838 14.444 5.55572ZM14.444 3.88905C14.444 4.03639 14.5025 4.1777 14.6067 4.28189C14.7109 4.38608 14.8522 4.44461 14.9996 4.44461C15.1469 4.44461 15.2882 4.38608 15.3924 4.28189C15.4966 4.1777 15.5551 4.03639 15.5551 3.88905C15.5551 3.74171 15.4966 3.6004 15.3924 3.49621C15.2882 3.39203 15.1469 3.3335 14.9996 3.3335C14.8522 3.3335 14.7109 3.39203 14.6067 3.49621C14.5025 3.6004 14.444 3.74171 14.444 3.88905ZM12.7773 3.88905C12.7773 4.03639 12.8359 4.1777 12.9401 4.28189C13.0442 4.38608 13.1856 4.44461 13.3329 4.44461C13.4802 4.44461 13.6216 4.38608 13.7257 4.28189C13.8299 4.1777 13.8885 4.03639 13.8885 3.88905C13.8885 3.74171 13.8299 3.6004 13.7257 3.49621C13.6216 3.39203 13.4802 3.3335 13.3329 3.3335C13.1856 3.3335 13.0442 3.39203 12.9401 3.49621C12.8359 3.6004 12.7773 3.74171 12.7773 3.88905ZM12.7773 5.55572C12.7773 5.70306 12.8359 5.84437 12.9401 5.94856C13.0442 6.05274 13.1856 6.11127 13.3329 6.11127C13.4802 6.11127 13.6216 6.05274 13.7257 5.94856C13.8299 5.84437 13.8885 5.70306 13.8885 5.55572C13.8885 5.40838 13.8299 5.26707 13.7257 5.16288C13.6216 5.05869 13.4802 5.00016 13.3329 5.00016C13.1856 5.00016 13.0442 5.05869 12.9401 5.16288C12.8359 5.26707 12.7773 5.40838 12.7773 5.55572Z" fill="#F4ABBA"/>
</g>
<defs>
<clipPath id="clip0_1790_6045">
<rect width="20" height="20" fill="white"/>
</clipPath>
</defs>
</svg>
