<svg width="36" height="36" viewBox="0 0 36 36" fill="none" xmlns="http://www.w3.org/2000/svg">
<path d="M31 15C31 15.5304 30.7893 16.0391 30.4142 16.4142C30.0391 16.7893 29.5304 17 29 17H7C6.46957 17 5.96086 16.7893 5.58579 16.4142C5.21071 16.0391 5 15.5304 5 15V7C5 6.46957 5.21071 5.96086 5.58579 5.58579C5.96086 5.21071 6.46957 5 7 5H29C29.5304 5 30.0391 5.21071 30.4142 5.58579C30.7893 5.96086 31 6.46957 31 7V15Z" fill="#FDCB58"/>
<path d="M33 19C33 19.5304 32.7893 20.0391 32.4142 20.4142C32.0391 20.7893 31.5304 21 31 21H5C4.46957 21 3.96086 20.7893 3.58579 20.4142C3.21071 20.0391 3 19.5304 3 19V11C3 10.4696 3.21071 9.96086 3.58579 9.58579C3.96086 9.21071 4.46957 9 5 9H31C31.5304 9 32.0391 9.21071 32.4142 9.58579C32.7893 9.96086 33 10.4696 33 11V19Z" fill="#FDD888"/>
<path d="M35 33C35 33.5304 34.7893 34.0391 34.4142 34.4142C34.0391 34.7893 33.5304 35 33 35H3C2.46957 35 1.96086 34.7893 1.58579 34.4142C1.21071 34.0391 1 33.5304 1 33V15C1 14.4696 1.21071 13.9609 1.58579 13.5858C1.96086 13.2107 2.46957 13 3 13H33C33.5304 13 34.0391 13.2107 34.4142 13.5858C34.7893 13.9609 35 14.4696 35 15V33Z" fill="#FEE7B8"/>
<path d="M23 3H18C17.4696 3 16.9609 3.21071 16.5858 3.58579C16.2107 3.96086 16 4.46957 16 5V6H18C18.5304 6 19.0391 6.21071 19.4142 6.58579C19.7893 6.96086 20 7.46957 20 8H23C23.5304 8 24.0391 7.78929 24.4142 7.41421C24.7893 7.03914 25 6.53043 25 6V5C25 4.46957 24.7893 3.96086 24.4142 3.58579C24.0391 3.21071 23.5304 3 23 3Z" fill="#78B159"/>
<path d="M17 7H12C11.4696 7 10.9609 7.21071 10.5858 7.58579C10.2107 7.96086 10 8.46957 10 9V10H12C12.5304 10 13.0391 10.2107 13.4142 10.5858C13.7893 10.9609 14 11.4696 14 12H17C17.5304 12 18.0391 11.7893 18.4142 11.4142C18.7893 11.0391 19 10.5304 19 10V9C19 8.46957 18.7893 7.96086 18.4142 7.58579C18.0391 7.21071 17.5304 7 17 7Z" fill="#F18F26"/>
<path d="M13 14C13 14.5304 12.7893 15.0391 12.4142 15.4142C12.0391 15.7893 11.5304 16 11 16H6C5.46957 16 4.96086 15.7893 4.58579 15.4142C4.21071 15.0391 4 14.5304 4 14V13C4 12.4696 4.21071 11.9609 4.58579 11.5858C4.96086 11.2107 5.46957 11 6 11H11C11.5304 11 12.0391 11.2107 12.4142 11.5858C12.7893 11.9609 13 12.4696 13 13V14Z" fill="#9268CA"/>
</svg>
